Complete name : IMPACT.WRESTLING.2012.03.01.HDTV.XviD-FICEK9.avi
      Format : AVI
      Format/Info : Audio Video Interleave
      File size : 746 MiB
      Duration : 1h 23mn
      Overall bit rate : 1 250 Kbps
      Writing application : MEncoder SVN-r30881(20100311-gcc4.3.3)
      Writing library : MPlayer
   Video
      Format : MPEG-4 Visual
      Format profile : Streaming Video@L1
      Format settings, BVOP : Yes
      Format settings, QPel : No
      Format settings, GMC : No warppoints
      Format settings, Matrix : Default (H.263)
      Codec ID : XVID
      Codec ID/Hint : XviD
      Duration : 1h 23mn
      Bit rate : 1 113 Kbps
      Width : 624 pixels
      Height : 352 pixels
      Display aspect ratio : 16/9
      Frame rate : 29.970 fps
      Resolution : 24 bits
      Colorimetry : 4:2:0
      Scan type : Progressive
      Bits/(Pixel*Frame) : 0.169
      Stream size : 665 MiB (89%)
      Writing library : XviD 1.2.1 (UTC 2008-12-04)
   Audio
      Format : MPEG Audio
      Format version : Version 1
      Format profile : Layer 3
      Codec ID : 55
      Codec ID/Hint : MP3
      Duration : 1h 23mn
      Bit rate mode : Variable
      Bit rate : 123 Kbps
      Channel(s) : 2 channels
      Sampling rate : 48.0 KHz
      Resolution : 16 bits
      Stream size : 73.5 MiB (10%)
      Alignment : Aligned on interleaves
      Interleave, duration : 24 ms (0.72 video frame)
      Interleave, preload duration : 505 ms